<?xml version="1.0" standalone="no"?>
<!DOCTYPE svg PUBLIC "-//W3C//DTD SVG 20010904//EN"
 "http://www.w3.org/TR/2001/REC-SVG-20010904/DTD/svg10.dtd">
<svg version="1.0" xmlns="http://www.w3.org/2000/svg"
 width="399.000000pt" height="399.000000pt" viewBox="0 0 399.000000 399.000000"
 preserveAspectRatio="xMidYMid meet">
<metadata>
Created by potrace 1.14, written by Peter Selinger 2001-2017
</metadata>
<g transform="translate(0.000000,399.000000) scale(0.100000,-0.100000)"
fill="#000000" stroke="none">
<path d="M1808 3982 c-16 -2 -28 -7 -28 -12 0 -4 -12 -5 -27 -1 -32 8 -116 -5
-121 -19 -2 -5 -10 -6 -18 -3 -25 9 -134 -18 -134 -34 0 -10 -5 -11 -17 -4
-36 18 -309 -92 -493 -199 -248 -145 -510 -402 -665 -651 -173 -279 -289 -628
-286 -861 1 -40 -3 -68 -9 -68 -16 0 -12 -269 5 -300 9 -17 10 -29 3 -37 -7
-9 -6 -14 3 -18 10 -4 13 -19 11 -49 -2 -24 1 -52 6 -63 7 -12 7 -24 0 -36 -8
-15 -6 -18 9 -15 12 2 17 -2 13 -12 -14 -46 4 -140 26 -140 13 0 14 -3 5 -14
-16 -19 14 -90 35 -82 7 3 14 1 14 -5 0 -5 -7 -12 -15 -15 -24 -10 -18 -23 17
-38 28 -12 30 -14 11 -15 -28 -1 -28 -2 -1 -54 12 -23 21 -48 20 -55 -2 -7 7
-16 19 -21 15 -5 18 -10 11 -15 -8 -5 -3 -25 18 -67 23 -45 36 -59 53 -60 12
0 16 -3 10 -6 -22 -8 -15 -27 48 -122 42 -64 65 -91 76 -87 10 4 13 0 11 -13
-8 -50 255 -311 447 -442 74 -51 114 -75 236 -142 139 -76 434 -169 574 -182
22 -2 49 -7 60 -11 25 -10 408 -11 496 -2 241 28 528 123 751 250 54 31 218
145 268 186 98 81 256 246 327 343 155 208 260 416 229 450 -8 9 -5 10 12 6
19 -4 23 -2 21 16 -1 12 11 49 26 82 34 71 58 175 44 191 -6 8 -3 13 9 16 15
4 20 18 24 64 3 33 1 65 -4 72 -8 8 -6 12 5 12 21 0 27 66 28 285 1 262 0 277
-11 270 -6 -3 -10 4 -10 17 0 13 -5 29 -12 36 -9 9 -9 12 0 12 14 0 16 36 2
45 -5 3 -10 20 -10 36 0 16 -7 41 -16 54 -10 15 -12 25 -5 25 22 0 11 20 -11
21 -13 0 -17 3 -10 6 17 7 15 33 -7 76 -10 20 -15 37 -10 37 5 0 9 5 9 10 0 6
-7 10 -15 10 -8 0 -12 6 -9 15 8 19 -12 78 -36 105 -10 12 -16 28 -14 35 3 7
-6 36 -20 64 -20 39 -33 53 -59 60 -25 7 -27 9 -9 10 12 1 22 6 22 11 0 23
-104 183 -122 188 -10 2 -18 11 -18 18 0 8 -10 14 -22 15 -20 0 -21 1 -5 8 17
6 15 12 -20 58 -76 101 -131 153 -166 154 -12 0 -16 3 -9 6 6 2 12 10 12 17 0
16 -42 56 -58 56 -7 0 -12 6 -13 13 0 12 -75 77 -89 77 -5 0 -11 -10 -13 -22
-4 -20 -4 -19 -6 5 -1 26 -71 107 -92 107 -12 0 -11 -47 1 -71 8 -15 7 -19 -5
-19 -12 0 -15 12 -15 53 l0 53 -91 53 c-102 61 -236 128 -265 133 -16 2 -18
-2 -16 -26 3 -18 0 -26 -7 -22 -6 4 -11 20 -11 35 0 25 -6 30 -57 49 -118 42
-205 63 -398 98 -42 7 -399 12 -447 6z"/>
</g>
</svg>
